<svg width="80" height="80" viewBox="0 0 80 80" fill="none" xmlns="http://www.w3.org/2000/svg">
<path d="M0 40C0 17.9086 17.9086 0 40 0C62.0914 0 80 17.9086 80 40C80 62.0914 62.0914 80 40 80C17.9086 80 0 62.0914 0 40Z" fill="white"/>
<path fill-rule="evenodd" clip-rule="evenodd" d="M35.4445 43.4514L28.4484 36.6146C26.5035 34.714 23.3856 34.7276 21.454 36.6153C19.5089 38.5161 19.522 41.5631 21.4533 43.4504L31.9473 53.7055C33.8923 55.6063 37.0101 55.5924 38.9417 53.7048C39.137 53.514 39.3125 53.3116 39.4684 53.0999C39.6866 52.9463 39.8952 52.7738 40.0916 52.5818L59.5391 33.5772C61.4781 31.6821 61.4895 28.6106 59.5577 26.723C57.6128 24.8221 54.486 24.8435 52.5439 26.7413L35.4445 43.4514Z" fill="#8DBC00"/>
</svg>
