<svg width="80" height="81" viewBox="0 0 80 81" fill="none" xmlns="http://www.w3.org/2000/svg">
<path d="M0 40.5C0 18.4086 17.9086 0.5 40 0.5C62.0914 0.5 80 18.4086 80 40.5C80 62.5914 62.0914 80.5 40 80.5C17.9086 80.5 0 62.5914 0 40.5Z" fill="white"/>
<g clip-path="url(#clip0_250_3768)">
<path d="M49.2959 25.6457L39.9999 34.9422C36.9014 31.8447 33.8019 28.7442 30.7029 25.6457C27.1179 22.0607 21.5609 27.6197 25.1429 31.2057C28.2424 34.3022 31.3429 37.4032 34.4389 40.5017C31.3415 43.6016 28.2428 46.7003 25.1429 49.7977C21.5609 53.3817 27.1184 58.9392 30.7029 55.3577C33.8014 52.2582 36.9009 49.1582 39.9994 46.0607L49.2954 55.3577C52.8804 58.9417 58.4389 53.3822 54.8554 49.7977C51.7559 46.6982 48.6574 43.5997 45.5569 40.5007C48.6569 37.4012 51.7554 34.3017 54.8554 31.2027C58.4394 27.6197 52.8809 22.0607 49.2954 25.6477" fill="#EC1C24"/>
</g>
<defs>
<clipPath id="clip0_250_3768">
<rect width="32" height="32" fill="white" transform="translate(24 24.5)"/>
</clipPath>
</defs>
</svg>
