<svg width="509" height="364" viewBox="0 0 509 364" fill="none" xmlns="http://www.w3.org/2000/svg">
<g clip-path="url(#clip0_21_499)">
<path d="M372.128 364C358.055 361.616 344.524 359.589 331.534 357.918L336.536 347.095C334.8 346.468 327.276 352.73 327.276 352.73L333.642 321.423C324.961 322.676 320.91 354.608 320.91 354.608L311.072 343.964L315.915 356.015C276.166 351.497 241.867 350.086 213.035 350.41L217.316 341.146C215.58 340.52 208.056 346.781 208.056 346.781L214.422 315.475C205.741 316.727 201.69 348.66 201.69 348.66L191.852 338.016L196.981 350.78C177.231 351.401 157.524 353.118 137.937 355.924C142.209 341.526 157.127 327.685 157.127 327.685C145.656 331.545 139.689 337.836 136.6 343.666C135.975 314.086 140.181 284.618 149.025 256.619C149.025 256.619 125.876 312.971 129.348 350.538L129.789 357.212C109.649 360.611 99.5429 364 99.5429 364H372.128Z" fill="#3F3D56"/>
<path d="M425.183 286.445C423.809 286.445 422.466 286.004 421.324 285.179C420.182 284.353 419.292 283.18 418.767 281.807C418.241 280.434 418.103 278.923 418.371 277.466C418.639 276.008 419.301 274.669 420.272 273.619C421.243 272.568 422.481 271.852 423.828 271.562C425.175 271.272 426.571 271.421 427.84 271.99C429.109 272.559 430.194 273.522 430.957 274.757C431.72 275.993 432.128 277.445 432.128 278.932C432.125 280.924 431.393 282.833 430.091 284.242C428.789 285.65 427.024 286.443 425.183 286.445ZM425.183 272.67C424.038 272.67 422.919 273.037 421.967 273.725C421.016 274.413 420.274 275.391 419.836 276.535C419.398 277.68 419.283 278.938 419.507 280.153C419.73 281.368 420.281 282.483 421.09 283.359C421.9 284.235 422.931 284.831 424.054 285.072C425.176 285.314 426.34 285.19 427.397 284.716C428.455 284.242 429.359 283.44 429.995 282.41C430.631 281.38 430.97 280.17 430.97 278.932C430.968 277.271 430.358 275.68 429.273 274.506C428.188 273.332 426.717 272.672 425.183 272.67Z" fill="#3F3D56"/>
<path d="M480.642 363.014H469.217V350.654H480.642V363.014ZM470.096 362.064H479.763V351.605H470.096V362.064Z" fill="#3F3D56"/>
<path d="M93.8388 363.69L86.0461 354.652L94.4008 346.221L102.194 355.26L93.8388 363.69ZM87.2882 354.698L93.882 362.347L100.951 355.213L94.3576 347.565L87.2882 354.698Z" fill="#3F3D56"/>
<path d="M509 362.316H12.5426V363.569H509V362.316Z" fill="#3F3D56"/>
<path d="M320.317 83.7509V124.875C320.316 125.255 320.176 125.619 319.928 125.888C319.679 126.156 319.343 126.308 318.992 126.309H318.048V340.539C318.048 346.467 315.871 352.152 311.997 356.344C308.122 360.536 302.867 362.891 297.387 362.891H173.659C170.946 362.891 168.26 362.313 165.754 361.189C163.247 360.066 160.97 358.419 159.052 356.343C157.134 354.268 155.613 351.804 154.575 349.092C153.537 346.38 153.003 343.474 153.004 340.539V133.822H152.321C152.073 133.823 151.835 133.717 151.66 133.528C151.484 133.339 151.385 133.082 151.383 132.814V109.41C151.383 109.276 151.408 109.145 151.455 109.021C151.502 108.898 151.571 108.787 151.658 108.692C151.745 108.598 151.848 108.523 151.962 108.472C152.076 108.422 152.198 108.395 152.321 108.395H153.004V99.5794H152.315C152.055 99.5783 151.806 99.4657 151.623 99.2661C151.439 99.0665 151.337 98.7964 151.337 98.515V75.4297C151.338 75.1493 151.441 74.8805 151.624 74.6822C151.808 74.484 152.056 74.3722 152.315 74.3715H153.004V62.3373H152.304C152.19 62.3375 152.077 62.3133 151.971 62.2662C151.866 62.219 151.77 62.1499 151.689 62.0626C151.609 61.9754 151.545 61.8718 151.501 61.7577C151.458 61.6437 151.435 61.5215 151.435 61.3981V48.8004C151.435 48.5506 151.526 48.3107 151.689 48.1335C151.852 47.9562 152.073 47.8561 152.304 47.855H153.004V22.3465C153.004 16.4199 155.18 10.7361 159.054 6.54538C162.927 2.35464 168.181 0.000215863 173.659 2.2871e-10H297.387C302.866 -2.67929e-05 308.12 2.35412 311.995 6.54473C315.869 10.7353 318.047 16.4193 318.048 22.3465V82.3171H318.992C319.343 82.3181 319.679 82.4695 319.928 82.7381C320.176 83.0068 320.316 83.3709 320.317 83.7509Z" fill="#3F3D56"/>
<path d="M241.484 11.4624H221.379C220.567 11.4624 219.908 12.175 219.908 13.054V14.934C219.908 15.813 220.567 16.5255 221.379 16.5255H241.484C242.297 16.5255 242.955 15.813 242.955 14.934V13.054C242.955 12.175 242.297 11.4624 241.484 11.4624Z" fill="#E6E8EC"/>
<path d="M249.095 16.8659C250.561 16.8659 251.749 15.5801 251.749 13.994C251.749 12.408 250.561 11.1222 249.095 11.1222C247.629 11.1222 246.44 12.408 246.44 13.994C246.44 15.5801 247.629 16.8659 249.095 16.8659Z" fill="#E6E8EC"/>
<path d="M308.155 26.7673V342.392C308.157 344.444 307.746 346.472 306.95 348.335C306.154 350.198 304.994 351.852 303.548 353.18C301.177 355.367 298.162 356.568 295.046 356.568H176.608C174.5 356.571 172.423 356.023 170.554 354.971C170.115 354.728 169.69 354.456 169.281 354.157C167.501 352.858 166.043 351.106 165.035 349.054C164.027 347.003 163.499 344.715 163.499 342.392V26.7673C163.499 24.9048 163.838 23.0607 164.497 21.34C165.156 19.6194 166.121 18.0559 167.338 16.739C168.556 15.4221 170.001 14.3775 171.591 13.6648C173.182 12.9521 174.886 12.5854 176.608 12.5854H194.334V15.0461C194.334 18.1431 195.472 21.1133 197.496 23.3032C199.52 25.4931 202.265 26.7234 205.128 26.7234H265.363C268.226 26.7234 270.971 25.4931 272.995 23.3032C275.019 21.1133 276.156 18.1431 276.156 15.0461V12.5854H295.046C296.768 12.5848 298.473 12.9513 300.063 13.6637C301.654 14.3762 303.099 15.4208 304.317 16.7378C305.534 18.0549 306.5 19.6185 307.158 21.3394C307.817 23.0603 308.155 24.9047 308.155 26.7673Z" fill="#18A0FB"/>
<path opacity="0.3" d="M308.155 297.211V342.392C308.157 344.444 307.746 346.472 306.95 348.335C306.154 350.198 304.994 351.852 303.548 353.18C301.177 355.367 298.162 356.568 295.046 356.568H176.608C174.5 356.571 172.423 356.024 170.554 354.971C170.115 354.728 169.69 354.456 169.281 354.157C167.501 352.858 166.043 351.106 165.035 349.054C164.027 347.003 163.499 344.715 163.499 342.392V297.23C183.359 277.916 209.119 267.229 235.824 267.226C262.528 267.222 288.29 277.902 308.155 297.211Z" fill="white"/>
<path opacity="0.3" d="M301.112 354.959C299.241 356.022 297.159 356.574 295.046 356.568H176.608C174.5 356.571 172.423 356.024 170.554 354.971C175.916 341.02 184.977 329.099 196.594 320.713C208.211 312.326 221.863 307.85 235.829 307.849C249.795 307.848 263.448 312.321 275.066 320.705C286.685 329.089 295.747 341.008 301.112 354.959Z" fill="white"/>
<path opacity="0.3" d="M275.335 355.716C274.203 356.359 272.943 356.693 271.664 356.69H199.994C198.719 356.692 197.462 356.36 196.331 355.724C199.576 347.281 205.059 340.068 212.088 334.993C219.118 329.918 227.38 327.21 235.83 327.209C244.281 327.208 252.543 329.915 259.574 334.988C266.604 340.062 272.089 347.274 275.335 355.716Z" fill="white"/>
<path d="M265.957 134.774C254.076 134.774 241.037 132.327 230.859 124.068C216.687 112.569 199.227 113.182 187.075 115.722C179.004 117.424 171.169 120.247 163.767 124.122L163.232 123.012C170.724 119.086 178.655 116.225 186.825 114.499C199.216 111.905 217.034 111.285 231.553 123.066C258.754 145.137 307.459 125.314 307.947 125.112L308.362 126.281C299.229 129.803 289.782 132.291 280.174 133.705C275.462 134.4 270.712 134.758 265.957 134.774Z" fill="white"/>
<path opacity="0.3" d="M163.493 123.567C163.493 123.567 203.426 113.103 231.206 127.43C258.985 141.757 308.178 127.323 308.178 127.323" fill="white"/>
<path opacity="0.3" d="M201.193 139.822C196.369 139.798 191.558 139.278 186.825 138.269C178.655 136.543 170.724 133.682 163.232 129.757L163.767 128.647C171.169 132.522 179.004 135.345 187.075 137.046C199.226 139.586 216.687 140.2 230.859 128.701C245.365 116.93 265.685 116.963 280.174 119.064C289.782 120.477 299.229 122.965 308.362 126.488L307.947 127.657C307.459 127.454 258.754 107.631 231.553 129.703C222.032 137.429 211.091 139.822 201.193 139.822Z" fill="white"/>
<path opacity="0.3" d="M201.39 134.78C181.346 134.78 163.546 127 163.279 126.881L163.72 125.723C164.116 125.899 203.704 143.191 230.911 125.763C258.589 108.031 307.829 123.859 308.323 124.021L307.987 125.22C307.498 125.059 258.741 109.39 231.501 126.84C222.205 132.796 211.511 134.78 201.39 134.78Z" fill="white"/>
<path opacity="0.3" d="M163.499 125.339C163.499 125.339 203.426 139.666 231.206 125.339C258.985 111.012 308.155 123.985 308.155 123.985" fill="white"/>
<path d="M318.462 163.67V181.923C318.462 181.923 319.811 202.367 327.235 212.589C327.235 212.589 339.383 231.207 341.07 227.192L338.992 213.971L331.959 206.748L328.247 184.114L327.235 163.67H318.462Z" fill="#FFB8B8"/>
<path d="M393.035 328.68V342.188L382.912 346.204V330.506L393.035 328.68Z" fill="#FFB8B8"/>
<path d="M372.451 327.22L379.2 343.648L369.752 348.029L367.727 331.966L372.451 327.22Z" fill="#FFB8B8"/>
<path d="M389.323 201.272C389.323 201.272 402.821 333.061 397.759 333.426C392.698 333.791 382.912 340.728 382.912 335.982C382.912 331.236 375.151 269.54 375.151 269.54L367.727 237.779V281.587L375.488 331.236C375.488 331.236 368.065 341.823 362.666 335.617L351.193 287.063C351.193 287.063 336.008 213.319 336.683 207.478C336.683 207.478 371.439 175.352 389.323 201.272Z" fill="#2F2E41"/>
<path d="M386.624 342.918C386.624 342.918 389.323 336.712 395.397 340.728L400.459 347.299C400.459 347.299 413.508 358.991 404.248 361.496C394.704 364.077 388.986 361.331 388.986 361.331C388.986 361.331 387.299 360.235 385.949 360.235C384.599 360.235 381.562 357.68 381.562 356.95C381.562 356.22 382.575 343.283 382.575 343.283C382.957 343.082 383.386 343.009 383.807 343.074C384.228 343.139 384.622 343.339 384.937 343.648C385.949 344.744 386.624 342.918 386.624 342.918Z" fill="#2F2E41"/>
<path d="M366.715 340.728C366.715 340.728 373.126 335.252 376.163 341.458C376.163 341.458 378.075 342.188 378.3 341.458C378.525 340.728 380.213 340.363 380.213 344.378C380.213 348.394 382.045 358.41 380.358 358.775C378.671 359.14 376.983 360.235 377.321 361.696C377.658 363.156 375.488 363.362 367.727 362.997C359.966 362.632 359.629 359.346 359.629 359.346C359.629 359.346 359.629 354.6 361.654 352.045C363.678 349.489 366.715 340.728 366.715 340.728Z" fill="#2F2E41"/>
<path d="M354.23 101.608C354.23 101.608 352.543 115.116 363.341 119.862C374.139 124.608 339.383 140.306 336.008 131.179C332.634 122.052 336.683 119.132 336.683 119.132C336.683 119.132 340.058 115.481 337.021 105.624L354.23 101.608Z" fill="#FFB8B8"/>
<path d="M343.432 111.1C351.632 111.1 358.279 103.909 358.279 95.0372C358.279 86.1659 351.632 78.9742 343.432 78.9742C335.232 78.9742 328.585 86.1659 328.585 95.0372C328.585 103.909 335.232 111.1 343.432 111.1Z" fill="#FFB8B8"/>
<path d="M360.641 124.243C360.641 124.243 350.518 130.084 340.732 125.703C330.947 121.322 331.284 140.306 331.284 140.306L336.346 154.543L371.439 150.892L369.077 128.988L360.641 124.243Z" fill="#F2F2F2"/>
<path d="M355.612 111.751C357.409 112.164 359.098 113.008 360.552 114.223C362.007 115.437 363.191 116.99 364.016 118.767L380.212 124.243L384.262 130.449L379.538 175.352C379.538 175.352 388.311 184.479 388.311 189.59C388.311 194.701 399.109 212.224 393.71 210.033C388.311 207.843 378.525 200.177 378.525 200.177C378.525 200.177 353.892 201.272 346.131 208.573C338.37 215.875 335.333 213.684 335.333 213.684C335.333 213.684 327.235 175.717 326.898 169.876C326.56 164.035 317.112 128.988 317.112 128.988L333.984 118.767L338.281 113.491L350.181 134.099L360.979 119.862C360.979 119.862 355.644 115.323 355.612 111.751Z" fill="#3F3D56"/>
<path d="M389.323 158.559L391.348 170.241C391.348 170.241 400.459 206.748 399.109 219.16C399.109 219.16 400.121 246.905 394.385 243.62C388.648 240.334 391.685 220.255 391.685 220.255L383.587 184.114L379.2 162.94L389.323 158.559Z" fill="#FFB8B8"/>
<path d="M380.887 128.258L384.262 130.449C384.262 130.449 397.084 159.289 394.047 161.479C391.01 163.67 377.85 168.416 377.85 168.416L380.887 128.258Z" fill="#3F3D56"/>
<path d="M325.21 128.989L317.28 128.806L315.425 132.274L317.787 167.686L329.934 170.606L325.21 128.989Z" fill="#3F3D56"/>
<path d="M355.522 81.4521L358.198 80.3993C358.198 80.3993 352.603 74.3456 344.818 74.872L347.007 72.5031C347.007 72.5031 341.655 70.3975 336.789 75.9248C334.231 78.8304 331.272 82.2457 329.427 86.0931H326.561L327.757 88.6813L323.571 91.2694L327.868 90.8045C327.461 93.039 327.601 95.3498 328.274 97.5076L329.247 100.403C329.247 100.403 333.14 91.9803 333.14 90.9274V93.5595C333.14 93.5595 335.816 91.1907 335.816 89.6114L337.276 91.4539L338.006 88.5586L347.007 91.4539L345.548 89.085L351.143 89.8747L348.953 86.9794C348.953 86.9794 355.279 90.4011 355.522 93.2963C355.765 96.1916 357.435 99.9656 357.435 99.9656L359.46 97.4101C359.46 97.4101 362.577 85.4002 355.522 81.4521Z" fill="#2F2E41"/>
<path d="M355.917 98.5053C356.569 98.5053 357.098 97.0343 357.098 95.2197C357.098 93.4051 356.569 91.9341 355.917 91.9341C355.265 91.9341 354.736 93.4051 354.736 95.2197C354.736 97.0343 355.265 98.5053 355.917 98.5053Z" fill="#FFB8B8"/>
<path d="M24.0951 342.502C31.2879 356.934 46.5536 363.129 46.5536 363.129C46.5536 363.129 50.1575 345.926 42.9647 331.495C35.7719 317.063 20.5062 310.868 20.5062 310.868C20.5062 310.868 16.9023 328.071 24.0951 342.502Z" fill="#3F3D56"/>
<path d="M29.0391 337.754C42.025 346.207 47.0263 362.996 47.0263 362.996C47.0263 362.996 30.9732 366.081 17.9873 357.628C5.00131 349.176 0 332.387 0 332.387C0 332.387 16.0531 329.302 29.0391 337.754Z" fill="#18A0FB"/>
<path opacity="0.3" d="M163.499 123.567C163.499 123.567 203.426 101.026 231.206 123.567C258.985 146.107 308.155 125.697 308.155 125.697" fill="white"/>
<path d="M235.98 352.933C239.496 352.933 242.347 349.849 242.347 346.046C242.347 342.242 239.496 339.158 235.98 339.158C232.464 339.158 229.614 342.242 229.614 346.046C229.614 349.849 232.464 352.933 235.98 352.933Z" fill="white"/>
</g>
<defs>
<clipPath id="clip0_21_499">
<rect width="509" height="364" fill="white"/>
</clipPath>
</defs>
</svg>
