<svg width="495" height="298" viewBox="0 0 495 298" fill="none" xmlns="http://www.w3.org/2000/svg">
<g clip-path="url(#clip0_21_561)">
<path d="M34.2195 279.623L63.4134 237.639L34.2047 284.19L34.1877 288.967C32.1058 288.949 30.0449 288.881 28.0051 288.763C27.9958 287.679 30.4772 228.003 30.3717 226.923C30.5157 226.882 30.5965 221.279 30.6536 221.034L0.154541 175.155L30.6864 216.691L30.7774 217.919L32.5887 171.555L6.37148 124.076L32.7961 163.408C32.8059 162.777 34.0468 67.5808 34.059 66.9934C34.0665 67.3054 34.636 142.751 34.6402 143.069L59.7139 112.701L34.6161 149.595L34.488 191.09L57.7561 150.964C28.7177 209.482 35.144 189.004 34.4024 220.265L68.2007 164.391L34.3735 228.314L34.2195 279.623Z" fill="#D0CDE1"/>
<path d="M480.839 285.323L493.005 267.827L480.833 287.226L480.826 289.216C479.958 289.209 479.1 289.181 478.25 289.132C478.246 288.68 479.28 263.811 479.236 263.361C479.296 263.344 479.329 261.009 479.353 260.907L466.644 241.788L479.367 259.098L479.405 259.609L480.16 240.288L469.234 220.503L480.246 236.893C480.25 236.63 480.767 196.96 480.772 196.715C480.775 196.845 481.013 228.285 481.015 228.417L491.463 215.762L481.005 231.137L480.951 248.429L490.648 231.707C478.547 256.094 481.225 247.56 480.916 260.587L495 237.303L480.903 263.941L480.839 285.323Z" fill="#D0CDE1"/>
<path d="M246.691 298C382.935 298 493.382 293.669 493.382 288.326C493.382 282.983 382.935 278.652 246.691 278.652C110.447 278.652 0 282.983 0 288.326C0 293.669 110.447 298 246.691 298Z" fill="#D0CDE1"/>
<path d="M366.354 114.258H84.6849V282.338H366.354V114.258Z" fill="#3F3D56"/>
<path d="M154.394 114.258C154.106 131.945 146.884 148.81 134.286 161.216C121.689 173.623 104.724 180.577 87.0506 180.579C86.259 180.579 85.472 180.565 84.6849 180.537V114.258H154.394Z" fill="#18A0FB"/>
<path d="M239.298 282.338H212.509C213.517 279.594 215.341 277.226 217.737 275.553C220.132 273.88 222.983 272.983 225.903 272.983C228.824 272.983 231.675 273.88 234.07 275.553C236.465 277.226 238.29 279.594 239.298 282.338Z" fill="#18A0FB"/>
<path d="M366.354 195.398V252.013C359.093 251.658 352.246 248.52 347.232 243.25C342.218 237.981 339.421 230.983 339.421 223.705C339.421 216.428 342.218 209.43 347.232 204.16C352.246 198.891 359.093 195.753 366.354 195.398Z" fill="#18A0FB"/>
<path d="M314.609 175.334H136.918C132.335 175.334 128.62 179.053 128.62 183.64V183.64C128.62 188.227 132.335 191.946 136.918 191.946H314.609C319.192 191.946 322.908 188.227 322.908 183.64C322.908 179.053 319.192 175.334 314.609 175.334Z" fill="white"/>
<path d="M314.609 208.07H136.918C132.335 208.07 128.62 211.789 128.62 216.376V216.376C128.62 220.964 132.335 224.683 136.918 224.683H314.609C319.192 224.683 322.908 220.964 322.908 216.376C322.908 211.789 319.192 208.07 314.609 208.07Z" fill="white"/>
<path d="M314.609 240.806H263.089C258.505 240.806 254.79 244.525 254.79 249.113C254.79 253.7 258.505 257.419 263.089 257.419H314.609C319.193 257.419 322.908 253.7 322.908 249.113C322.908 244.525 319.193 240.806 314.609 240.806Z" fill="white"/>
<path d="M411.022 51.649C411.022 51.649 418.767 54.6638 419.198 64.5695C419.628 74.4752 417.046 102.039 417.046 102.039C417.046 102.039 426.513 115.821 419.198 119.697C411.883 123.573 411.022 104.192 411.022 104.192L402.416 63.2774C402.416 63.2774 407.58 51.2183 411.022 51.649Z" fill="#A0616A"/>
<path d="M331.847 83.5195C331.847 83.5195 313.345 95.5786 312.484 86.1036C311.623 76.6285 318.078 39.5897 318.078 39.5897C318.078 39.5897 318.939 23.6543 327.975 27.5305C337.011 31.4067 325.393 44.7579 325.393 44.7579L326.684 74.9058L335.29 74.4751L331.847 83.5195Z" fill="#A0616A"/>
<path d="M361.538 94.7174C361.538 94.7174 304.739 73.6139 307.751 98.1629C310.763 122.712 325.393 153.721 325.393 153.721L330.557 161.904H341.314L334.429 117.544C334.429 117.544 358.956 131.326 366.271 129.172C366.271 129.172 375.738 192.483 379.18 197.22C382.622 201.958 388.646 259.239 388.646 259.239L394.24 266.13H404.998V169.226C404.998 169.226 423.5 108.93 409.301 105.915C395.101 102.9 361.538 94.7174 361.538 94.7174Z" fill="#2F2E41"/>
<path d="M329.266 156.305C329.266 156.305 326.684 151.568 322.381 156.305C318.078 161.043 307.751 166.642 307.751 166.642C307.751 166.642 285.375 171.81 303.448 176.117C321.52 180.424 323.672 176.117 323.672 176.117C323.672 176.117 326.684 176.978 329.266 177.839C331.847 178.701 348.629 175.686 348.629 173.102C348.629 170.518 342.932 155.075 340.617 157.413C338.302 159.751 329.266 156.305 329.266 156.305Z" fill="#2F2E41"/>
<path d="M395.065 261.867C395.065 261.867 388.72 256.637 387.228 258.131C385.735 259.625 377.897 269.711 377.897 269.711C377.897 269.711 356.998 285.773 376.031 288.388C395.065 291.003 393.945 283.906 393.945 283.906H399.917C400.663 283.906 410.74 279.423 410.366 277.556C409.993 275.688 405.515 260.458 404.022 261.536C402.529 262.614 395.065 261.867 395.065 261.867Z" fill="#2F2E41"/>
<path d="M337.441 35.2829C345.521 35.2829 352.071 28.7269 352.071 20.6396C352.071 12.5524 345.521 5.99634 337.441 5.99634C329.361 5.99634 322.811 12.5524 322.811 20.6396C322.811 28.7269 329.361 35.2829 337.441 35.2829Z" fill="#A0616A"/>
<path d="M347.768 18.917C347.768 18.917 358.956 28.392 366.701 28.392C374.447 28.392 355.514 46.0501 355.514 46.0501L338.732 30.9762L347.768 18.917Z" fill="#A0616A"/>
<path d="M352.071 46.0501L351.736 42.657C351.736 42.657 360.247 27.5307 362.829 26.2386C365.411 24.9465 367.132 24.9465 367.132 24.9465C367.132 24.9465 375.738 15.9022 385.204 20.6397C394.671 25.3772 417.046 55.5251 417.046 55.5251C417.046 55.5251 401.125 56.8172 403.277 69.307C403.277 69.307 419.198 110.222 414.895 110.653C410.592 111.083 397.683 108.069 384.344 114.098C371.004 120.128 364.98 116.252 364.98 116.252L358.096 93.856C358.096 93.856 345.187 86.5344 345.617 80.0741L326.899 88.4724L328.62 72.5371L340.023 59.4013C340.023 59.4013 337.872 57.6785 352.071 46.0501Z" fill="#575A89"/>
<path d="M323.984 22.2228C323.402 22.8696 322.673 23.3664 321.859 23.671C321.026 23.9062 319.976 23.6177 319.644 22.8174L320.262 22.0116L318.408 20.8581L319.216 19.9091L317.722 18.2856L318.901 17.3494L316.657 15.7426C319.566 10.991 322.712 6.18 327.305 3.03019C331.898 -0.119624 338.316 -1.23886 343.022 1.74043C345.465 3.28724 347.192 5.74229 348.576 8.28259C351.359 13.3914 353.812 18.3713 354.174 24.1788C352.426 22.475 349.874 21.5149 348.126 19.811C347.352 18.9889 346.475 18.2703 345.517 17.6732C343.688 16.6412 341.5 16.5499 339.454 16.0844C337.732 15.693 336.616 14.9165 335.313 13.8064C333.764 12.4859 333.701 12.9965 332.137 14.4833C329.421 17.0649 326.703 19.6448 323.984 22.2228Z" fill="#2F2E41"/>
</g>
<defs>
<clipPath id="clip0_21_561">
<rect width="495" height="298" fill="white"/>
</clipPath>
</defs>
</svg>
