<svg width="51" height="51" viewBox="0 0 51 51" fill="none" xmlns="http://www.w3.org/2000/svg">
<g clip-path="url(#clip0_21_473)">
<path d="M0.477905 38.8078L15.2201 23.4281L3.90447 7.09216C3.34666 7.80935 2.94822 8.7656 2.86853 9.88123L-0.000219729 35.939C-0.0799072 37.0547 0.0794678 38.0109 0.477905 38.8078Z" fill="#18A0FB"/>
<path d="M49.9637 4.38281L28.6074 24.225L45.4215 46.9359C46.3777 46.1391 47.0152 44.9437 47.1746 43.5094L50.9996 7.96875C51.159 6.53437 50.6809 5.17969 49.9637 4.38281Z" fill="#18A0FB"/>
<path d="M20.4795 31.3969L15.2201 23.4281L0.477905 38.8078C0.796655 39.525 1.35447 40.0031 1.99197 40.1625L42.4732 47.8125C43.5888 48.0515 44.6248 47.6531 45.4217 46.9359L28.6076 24.225L20.4795 31.3969Z" fill="#18A0FB"/>
<path d="M47.2549 3.18758L5.65803 5.97664C5.02053 6.05633 4.38303 6.45477 3.90491 7.09227L15.3002 23.4282L20.5596 31.397L28.6877 24.2251L49.9643 4.38289C49.2471 3.58602 48.2908 3.10789 47.2549 3.18758Z" fill="#18A0FB"/>
<path d="M28.0502 18.8062L28.5283 14.7422L14.583 14.6625L12.2721 33.7078L25.819 36.8953L26.3768 32.8312L16.1768 30.839L16.7346 26.4562L26.9346 27.8906L27.4127 23.8265L17.133 22.7906L17.6908 18.3281L28.0502 18.8062Z" fill="white"/>
</g>
<defs>
<clipPath id="clip0_21_473">
<rect width="51" height="51" fill="white"/>
</clipPath>
</defs>
</svg>
